<svg height="512pt" viewBox="0 0 512 512" width="512pt" xmlns="http://www.w3.org/2000/svg" xmlns:xlink="http://www.w3.org/1999/xlink"><linearGradient id="a" gradientUnits="userSpaceOnUse" x1="0" x2="512" y1="256" y2="256"><stop offset="0" stop-color="#00f38d"/><stop offset="1" stop-color="#009eff"/></linearGradient><path d="m512 256c0 141.386719-114.613281 256-256 256s-256-114.613281-256-256 114.613281-256 256-256 256 114.613281 256 256zm0 0" fill="url(#a)"/><g fill="#fff"><path d="m270.378906 88.300781h30v36.109375h-30zm0 0"/><path d="m377.179688 201.214844h35.5v30h-35.5zm0 0"/><path d="m403.664062 165.257812-31.269531 18.054688-15-25.980469 31.269531-18.054687zm0 0"/><path d="m339.285156 99.238281 25.59375 15.644531-18.828125 30.808594-25.597656-15.644531zm0 0"/><path d="m234.59375 97.863281 18.011719 31.296875-26 14.964844-18.011719-31.296875zm0 0"/><path d="m184.179688 136.558594 30.785156 18.875-15.683594 25.574218-30.78125-18.875zm0 0"/><path d="m386.824219 295.535156-30.847657-18.777344 15.601563-25.625 30.84375 18.777344zm0 0"/><path d="m331.808594 268.925781c14.777344-12.988281 23.703125-31.914062 23.703125-52.65625 0-38.644531-31.460938-70.082031-70.132813-70.082031-25.796875 0-49.226562 13.921875-61.546875 36.441406-19.257812.757813-37.589843 8.175782-51.933593 21.09375-12.710938 11.453125-21.421876 26.414063-25.085938 42.847656-11.832031 2.875-22.601562 9.210938-30.996094 18.359376-10.636718 11.597656-16.496094 26.675781-16.496094 42.460937 0 20.253906 9.503907 38.285156 24.480469 49.699219v-49.699219c0-19.734375 15.214844-36.414063 34.640625-37.96875l10.15625-.8125 1.042969-10.136719c3.007813-29.324218 27.714844-51.4375 57.46875-51.4375 3.09375 0 6.128906.25 9.09375.714844l7.492187 1.695312c22.050782 6.550782 38.574219 25.808594 40.804688 49.117188l.265625 6.492188v19.09375h5.898437l12.457032.0625c16.023437.949218 28.773437 14.289062 28.773437 30.554687v45.773437c14.746094-9.886718 24.480469-26.710937 24.480469-45.773437-.003906-19.09375-9.769531-35.953125-24.566406-45.839844zm-74.933594-80.894531c7.414062-7.476562 17.582031-11.84375 28.503906-11.84375 22.128906 0 40.132813 17.980469 40.132813 40.082031 0 13.640625-6.738281 25.910157-17.550781 33.21875-2.917969-16.367187-10.773438-31.390625-22.851563-43.292969-8.164063-8.046874-17.769531-14.164062-28.234375-18.164062zm0 0"/><path d="m194.777344 333.523438-13.875 13.875-13.875-13.875-21.210938 21.210937 13.871094 13.875-13.871094 13.875 21.210938 21.214844 13.875-13.875 13.875 13.875 21.210937-21.214844-13.875-13.875 13.875-13.875zm0 0"/><path d="m287.625 310.265625-13.875 13.875-13.875-13.875-21.214844 21.214844 13.875 13.875-13.875 13.871093 21.214844 21.214844 13.875-13.875 13.875 13.875 21.210938-21.214844-13.875-13.871093 13.875-13.875zm0 0"/></g></svg>